<svg width="24" height="24" viewBox="0 0 24 24" fill="none" xmlns="http://www.w3.org/2000/svg">
<path d="M14.5299 9.4709L9.46992 14.5309C8.81992 13.8809 8.41992 12.9909 8.41992 12.0009C8.41992 10.0209 10.0199 8.4209 11.9999 8.4209C12.9899 8.4209 13.8799 8.8209 14.5299 9.4709Z" stroke="#7C7C7C" stroke-width="1.5" stroke-linecap="round" stroke-linejoin="round"/>
<path d="M17.8201 5.77096C16.0701 4.45096 14.0701 3.73096 12.0001 3.73096C8.47009 3.73096 5.18009 5.81096 2.89009 9.41096C1.99009 10.821 1.99009 13.191 2.89009 14.601C3.68009 15.841 4.60009 16.911 5.60009 17.771" stroke="#7C7C7C" stroke-width="1.5" stroke-linecap="round" stroke-linejoin="round"/>
<path d="M8.41992 19.5309C9.55992 20.0109 10.7699 20.2709 11.9999 20.2709C15.5299 20.2709 18.8199 18.1909 21.1099 14.5909C22.0099 13.1809 22.0099 10.8109 21.1099 9.40091C20.7799 8.88091 20.4199 8.39091 20.0499 7.93091" stroke="#7C7C7C" stroke-width="1.5" stroke-linecap="round" stroke-linejoin="round"/>
<path d="M15.5099 12.7009C15.2499 14.1109 14.0999 15.2609 12.6899 15.5209" stroke="#7C7C7C" stroke-width="1.5" stroke-linecap="round" stroke-linejoin="round"/>
<path d="M9.47 14.531L2 22.001" stroke="#7C7C7C" stroke-width="1.5" stroke-linecap="round" stroke-linejoin="round"/>
<path d="M22 2.00098L14.53 9.47098" stroke="#7C7C7C" stroke-width="1.5" stroke-linecap="round" stroke-linejoin="round"/>
</svg>
