<svg width="19" height="18" viewBox="0 0 19 18" fill="none" xmlns="http://www.w3.org/2000/svg">
<mask id="mask0_231_1982" style="mask-type:luminance" maskUnits="userSpaceOnUse" x="0" y="0" width="19" height="19">
<rect x="0.5" y="0.000976562" width="18" height="18" fill="white"/>
</mask>
<g mask="url(#mask0_231_1982)">
<path fill-rule="evenodd" clip-rule="evenodd" d="M16.8536 7.5321H16.2495V7.50098H9.49951V10.501H13.7381C13.1198 12.2474 11.4581 13.501 9.49951 13.501C7.01439 13.501 4.99951 11.4861 4.99951 9.00098C4.99951 6.51585 7.01439 4.50098 9.49951 4.50098C10.6466 4.50098 11.6903 4.93373 12.4849 5.6406L14.6063 3.51923C13.2668 2.27085 11.475 1.50098 9.49951 1.50098C5.35764 1.50098 1.99951 4.8591 1.99951 9.00098C1.99951 13.1429 5.35764 16.501 9.49951 16.501C13.6414 16.501 16.9995 13.1429 16.9995 9.00098C16.9995 8.4981 16.9478 8.00723 16.8536 7.5321Z" fill="#FFC107"/>
<path fill-rule="evenodd" clip-rule="evenodd" d="M2.86523 5.5101L5.32936 7.31723C5.99611 5.66648 7.61086 4.50098 9.50049 4.50098C10.6476 4.50098 11.6912 4.93373 12.4859 5.6406L14.6072 3.51923C13.2677 2.27085 11.476 1.50098 9.50049 1.50098C6.61974 1.50098 4.12148 3.12735 2.86523 5.5101Z" fill="#FF3D00"/>
<path fill-rule="evenodd" clip-rule="evenodd" d="M9.5006 16.501C11.4379 16.501 13.1981 15.7596 14.529 14.554L12.2077 12.5897C11.4547 13.1601 10.5187 13.501 9.5006 13.501C7.54985 13.501 5.89348 12.2571 5.26948 10.5212L2.82373 12.4056C4.06498 14.8345 6.58573 16.501 9.5006 16.501Z" fill="#4CAF50"/>
<path fill-rule="evenodd" clip-rule="evenodd" d="M16.8541 7.5321H16.25V7.50098H9.5V10.501H13.7386C13.4416 11.3399 12.902 12.0632 12.206 12.5901C12.2064 12.5897 12.2068 12.5897 12.2071 12.5894L14.5284 14.5536C14.3641 14.7029 17 12.751 17 9.00098C17 8.4981 16.9482 8.00723 16.8541 7.5321Z" fill="#1976D2"/>
</g>
</svg>
