<svg width="41" height="41" viewBox="0 0 41 41" fill="none" xmlns="http://www.w3.org/2000/svg">
<circle cx="20.5" cy="20.0431" r="20" fill="#F45156" fill-opacity="0.933333"/>
<path d="M16.9553 8.93201L12.9331 12.9653" stroke="white" stroke-width="1.5" stroke-miterlimit="10" stroke-linecap="round" stroke-linejoin="round"/>
<path d="M24.0444 8.93201L28.0667 12.9653" stroke="white" stroke-width="1.5" stroke-miterlimit="10" stroke-linecap="round" stroke-linejoin="round"/>
<path d="M9.38867 15.432C9.38867 13.3764 10.4887 13.2098 11.8553 13.2098H29.1442C30.5109 13.2098 31.6109 13.3764 31.6109 15.432C31.6109 17.8209 30.5109 17.6542 29.1442 17.6542H11.8553C10.4887 17.6542 9.38867 17.8209 9.38867 15.432Z" stroke="white" stroke-width="1.5"/>
<path d="M18.0107 22.2653V26.2098" stroke="white" stroke-width="1.5" stroke-linecap="round"/>
<path d="M23.1221 22.2653V26.2098" stroke="white" stroke-width="1.5" stroke-linecap="round"/>
<path d="M11.0552 17.8209L12.6218 27.4209C12.9774 29.5764 13.833 31.1542 17.0107 31.1542H23.7107C27.1663 31.1542 27.6774 29.6431 28.0774 27.5542L29.9441 17.8209" stroke="white" stroke-width="1.5" stroke-linecap="round"/>
</svg>
