<svg width="20" height="21" viewBox="0 0 20 21" fill="none" xmlns="http://www.w3.org/2000/svg">
<path d="M7.34162 2.1665L4.32495 5.1915" stroke="#F45156" stroke-width="1.5" stroke-miterlimit="10" stroke-linecap="round" stroke-linejoin="round"/>
<path d="M12.6583 2.1665L15.675 5.1915" stroke="#F45156" stroke-width="1.5" stroke-miterlimit="10" stroke-linecap="round" stroke-linejoin="round"/>
<path d="M1.66663 7.04167C1.66663 5.5 2.49163 5.375 3.51663 5.375H16.4833C17.5083 5.375 18.3333 5.5 18.3333 7.04167C18.3333 8.83333 17.5083 8.70833 16.4833 8.70833H3.51663C2.49163 8.70833 1.66663 8.83333 1.66663 7.04167Z" stroke="#F45156" stroke-width="1.5"/>
<path d="M8.1333 12.1665V15.1248" stroke="#F45156" stroke-width="1.5" stroke-linecap="round"/>
<path d="M11.9667 12.1665V15.1248" stroke="#F45156" stroke-width="1.5" stroke-linecap="round"/>
<path d="M2.91663 8.8335L4.09163 16.0335C4.35829 17.6502 4.99996 18.8335 7.38329 18.8335H12.4083C15 18.8335 15.3833 17.7002 15.6833 16.1335L17.0833 8.8335" stroke="#F45156" stroke-width="1.5" stroke-linecap="round"/>
</svg>
