<svg width="24" height="25" viewBox="0 0 24 25" fill="none" xmlns="http://www.w3.org/2000/svg">
<path d="M0.75 12.5002C0.75 17.4127 3.9 21.5752 8.25 23.1127V1.8877C3.9 3.4252 0.75 7.58769 0.75 12.5002ZM23.25 12.5002C23.25 7.58769 20.1375 3.4252 15.75 1.8877V23.1127C20.1375 21.5752 23.25 17.4127 23.25 12.5002Z" fill="#186648"/>
<path d="M8.25 23.1125C9.4125 23.525 10.6875 23.75 12 23.75C13.3125 23.75 14.5875 23.525 15.75 23.1125V1.8875C14.5875 1.475 13.3125 1.25 12 1.25C10.6875 1.25 9.4125 1.475 8.25 1.8875V23.1125Z" fill="#F9F9F9"/>
</svg>
