<svg width="40" height="41" viewBox="0 0 40 41" fill="none" xmlns="http://www.w3.org/2000/svg">
<circle cx="20" cy="20.5" r="20" fill="#F5F5F5"/>
<path d="M16.8099 10L13.1899 13.63" stroke="#1B1B1B" stroke-width="1.5" stroke-miterlimit="10" stroke-linecap="round" stroke-linejoin="round"/>
<path d="M23.1899 10L26.8099 13.63" stroke="#1B1B1B" stroke-width="1.5" stroke-miterlimit="10" stroke-linecap="round" stroke-linejoin="round"/>
<path d="M10 15.8501C10 14.0001 10.99 13.8501 12.22 13.8501H27.78C29.01 13.8501 30 14.0001 30 15.8501C30 18.0001 29.01 17.8501 27.78 17.8501H12.22C10.99 17.8501 10 18.0001 10 15.8501Z" stroke="#1B1B1B" stroke-width="1.5"/>
<path d="M17.76 22V25.55" stroke="#1B1B1B" stroke-width="1.5" stroke-linecap="round"/>
<path d="M22.3601 22V25.55" stroke="#1B1B1B" stroke-width="1.5" stroke-linecap="round"/>
<path d="M11.5 18L12.91 26.64C13.23 28.58 14 30 16.86 30H22.89C26 30 26.46 28.64 26.82 26.76L28.5 18" stroke="#1B1B1B" stroke-width="1.5" stroke-linecap="round"/>
<circle cx="28" cy="14.5" r="4" fill="#F45156"/>
</svg>
