<svg width="18" height="19" viewBox="0 0 18 19" fill="none" xmlns="http://www.w3.org/2000/svg">
<mask id="mask0_231_2294" style="mask-type:luminance" maskUnits="userSpaceOnUse" x="0" y="0" width="18" height="19">
<rect y="0.500977" width="18" height="18" fill="white"/>
</mask>
<g mask="url(#mask0_231_2294)">
<path fill-rule="evenodd" clip-rule="evenodd" d="M16.3538 8.0321H15.7496V8.00098H8.99963V11.001H13.2383C12.6199 12.7474 10.9583 14.001 8.99963 14.001C6.51451 14.001 4.49963 11.9861 4.49963 9.50098C4.49963 7.01585 6.51451 5.00098 8.99963 5.00098C10.1468 5.00098 11.1904 5.43373 11.985 6.1406L14.1064 4.01923C12.7669 2.77085 10.9751 2.00098 8.99963 2.00098C4.85776 2.00098 1.49963 5.3591 1.49963 9.50098C1.49963 13.6429 4.85776 17.001 8.99963 17.001C13.1415 17.001 16.4996 13.6429 16.4996 9.50098C16.4996 8.9981 16.4479 8.50723 16.3538 8.0321Z" fill="#FFC107"/>
<path fill-rule="evenodd" clip-rule="evenodd" d="M2.36536 6.0101L4.82948 7.81723C5.49623 6.16648 7.11098 5.00098 9.00061 5.00098C10.1477 5.00098 11.1914 5.43373 11.986 6.1406L14.1074 4.01923C12.7679 2.77085 10.9761 2.00098 9.00061 2.00098C6.11986 2.00098 3.62161 3.62735 2.36536 6.0101Z" fill="#FF3D00"/>
<path fill-rule="evenodd" clip-rule="evenodd" d="M9.00048 17.001C10.9377 17.001 12.698 16.2596 14.0289 15.054L11.7076 13.0897C10.9546 13.6601 10.0186 14.001 9.00048 14.001C7.04973 14.001 5.39336 12.7571 4.76936 11.0212L2.32361 12.9056C3.56486 15.3345 6.08561 17.001 9.00048 17.001Z" fill="#4CAF50"/>
<path fill-rule="evenodd" clip-rule="evenodd" d="M16.3541 8.0321H15.75V8.00098H9V11.001H13.2386C12.9416 11.8399 12.402 12.5632 11.706 13.0901C11.7064 13.0897 11.7068 13.0897 11.7071 13.0894L14.0284 15.0536C13.8641 15.2029 16.5 13.251 16.5 9.50098C16.5 8.9981 16.4482 8.50723 16.3541 8.0321Z" fill="#1976D2"/>
</g>
</svg>
