<svg width="42" height="32" viewBox="0 0 42 32" fill="none" xmlns="http://www.w3.org/2000/svg">
<g clip-path="url(#clip0_223_385)">
<path d="M15.6699 6H26.7895V25.9801H15.6699V6Z" fill="#FF5F00"/>
<path d="M16.3758 15.7082C16.3758 11.6487 18.2819 8.04796 21.2118 5.71807C19.0586 4.02368 16.3406 3 13.3753 3C6.35029 3 0.666992 8.6833 0.666992 15.7082C0.666992 22.7331 6.35029 28.4164 13.3752 28.4164C16.3404 28.4164 19.0585 27.3927 21.2118 25.6981C18.2819 23.4036 16.3758 19.7677 16.3758 15.7082Z" fill="#EB001B"/>
<path d="M41.792 15.7082C41.792 22.7329 36.1087 28.4164 29.0838 28.4164C26.1185 28.4164 23.4004 27.3927 21.2471 25.6981C24.2123 23.3684 26.0833 19.7677 26.0833 15.7082C26.0833 11.6487 24.1769 8.04796 21.2471 5.71807C23.4003 4.02368 26.1185 3 29.0838 3C36.1087 3 41.792 8.71867 41.792 15.7082Z" fill="#F79E1B"/>
</g>
<defs>
<clipPath id="clip0_223_385">
<rect width="41.1658" height="32" fill="white" transform="translate(0.666992)"/>
</clipPath>
</defs>
</svg>
