<svg width="40" height="41" viewBox="0 0 40 41" fill="none" xmlns="http://www.w3.org/2000/svg">
<circle cx="20" cy="20.5" r="20" fill="#F5F5F5"/>
<path d="M20.1601 19.37C20.0601 19.36 19.9401 19.36 19.8301 19.37C17.4501 19.29 15.5601 17.34 15.5601 14.94C15.5601 12.49 17.5401 10.5 20.0001 10.5C22.4501 10.5 24.4401 12.49 24.4401 14.94C24.4301 17.34 22.5401 19.29 20.1601 19.37Z" stroke="#1B1B1B" stroke-width="1.5" stroke-linecap="round" stroke-linejoin="round"/>
<path d="M15.16 23.06C12.74 24.68 12.74 27.32 15.16 28.93C17.91 30.77 22.42 30.77 25.17 28.93C27.59 27.31 27.59 24.67 25.17 23.06C22.43 21.23 17.92 21.23 15.16 23.06Z" stroke="#1B1B1B" stroke-width="1.5" stroke-linecap="round" stroke-linejoin="round"/>
</svg>
